<svg xmlns="http://www.w3.org/2000/svg" width="220.138" height="27.951" style="enable-background:new 0 0 220.138 27.951" viewBox="0 0 220.138 27.951"> <g transform="translate(-4283.618 -3375.858)"> <g transform="translate(4413.698 3379.225)"> <path d="M4435.982,3388.854v9.022c0,1.4.717,2.153,2.643,2.153a6.1,6.1,0,0,0,2.945-.831c0,1.095-.944,4.908-5.777,4.908-3.851,0-5.964-2-5.964-5.626V3388.7l-2.945-.415v-3.625h2.945c0-2.944,1.925-5.1,6.153-5.1v5.1h4.833v4.19Z" transform="translate(-4426.884 -3379.566)"/> <path d="M4458.477,3396.435h-11.115v-5.557h11.115Z" transform="translate(-4428.769 -3380.607)"/> <path d="M4479.1,3390.315h-8.336v13.892h-5.556v-19.448h2.778v2.777h2.778v-2.777h8.336Z" transform="translate(-4430.412 -3380.044)"/> <path d="M4501.6,3404.207h-13.892v-2.778h-2.778v-13.893h2.778v-2.777h11.113v2.777h2.779v8.336h-11.114v2.778H4501.6Zm-5.557-11.114v-2.778h-5.557v2.778Z" transform="translate(-4432.227 -3380.044)"/> <path d="M4524.381,3404.207h-5.556v-8.335h-5.557v8.335h-5.556v-8.335h2.778v-2.779h-2.778v-8.335h5.556v5.557h5.557v-5.557h5.556v8.335H4521.6v2.779h2.777Z" transform="translate(-4434.323 -3380.044)"/> </g> <g transform="translate(4283.618 3375.858)"> <path d="M4357.686,3393.446a15.455,15.455,0,0,1-.187,2.215h-11.421c.338,3.682,2.931,4.7,5.333,4.7a6.9,6.9,0,0,0,5.41-2.292,4.119,4.119,0,0,1,.264,1.39c0,1.915-1.764,5.187-7.588,5.187-6.986,0-9.73-5.036-9.73-9.657,0-6.125,4.093-10.068,9.466-10.068C4355.319,3384.918,4357.686,3389.052,4357.686,3393.446Zm-5.674-.976v-.414a2.768,2.768,0,0,0-2.854-2.967,3.142,3.142,0,0,0-3.194,3.381Z" transform="translate(-4288.786 -3376.692)" fill="#d22526"/> <path d="M4337.677,3399.868l-.451,4.435h-16.042v-3.755l9.429-10.783H4324a2.651,2.651,0,0,1-2.857-2.967,5.257,5.257,0,0,1,.264-1.467h15.818v3.909l-9.243,10.629Z" transform="translate(-4287.072 -3376.73)" fill="#d22526"/> <path d="M4317.859,3385.319v19.123c-1.919,0-4.809-.151-5.6-3.418-.939,2.442-3.271,3.646-5.975,3.646-3.906,0-6.163-2.293-6.163-6.352,0-11.608-.414-13-.414-13a12.771,12.771,0,0,1,1.691-.11c2.593,0,4.849,1.24,4.849,4.093v8.19c0,1.541.6,2.707,2.438,2.707,2.634,0,3.044-2.292,3.044-4.1v-10.783Z" transform="translate(-4285.099 -3376.719)" fill="#d22526"/> <path d="M4292.86,3382.958v1.5h3.679v4.17h-3.679v14.8h-6.125v-14.538a2.915,2.915,0,0,1-3.118-3.231v-1.2h3.118v-1.951c0-4.471,3.081-6.649,7.324-6.649a9.711,9.711,0,0,1,3.568.675,4.677,4.677,0,0,1,.041.752c0,1.691-.638,3.341-3.007,3.341C4293.234,3380.626,4292.86,3381.642,4292.86,3382.958Z" transform="translate(-4283.618 -3375.858)" fill="#d22526"/> <path d="M4369.042,3388.936v8.853c0,1.387.863,2.251,2.626,2.251a6.062,6.062,0,0,0,2.925-.825c0,1.088-.937,4.876-5.739,4.876-3.826,0-5.926-1.988-5.926-5.589v-9.715l-2.927-.413v-3.6h2.927v-.825c.037-2.888,1.95-4.989,6.114-4.989v5.815h4.8l-.376,4.164Zm5.365,5.514c0-6.114,4.088-10.053,9.452-10.053,6.077,0,8.439,4.126,8.439,8.515a15.07,15.07,0,0,1-.187,2.214h-11.4c.337,3.676,2.926,4.689,5.327,4.689a6.9,6.9,0,0,0,5.4-2.288,4.128,4.128,0,0,1,.263,1.387c0,1.913-1.763,5.177-7.577,5.177-6.977,0-9.715-5.026-9.715-9.641m12.228-2.925a2.765,2.765,0,0,0-2.851-2.964,3.138,3.138,0,0,0-3.188,3.376h6.04Zm11.816,12.566c-2.739,0-5.778-1.351-5.778-5.439a5.474,5.474,0,0,1,3.527-4.914,21.584,21.584,0,0,1,7.427-1.537v-1.276c0-1.388-1.125-1.8-2.588-1.8-.976,0-2.176.262-3.114.262-3.114,0-3.6-2.288-3.826-3.527a19.9,19.9,0,0,1,7.578-1.463c5.026,0,8.065,2.025,8.065,6.6v9.827a1.652,1.652,0,0,0,1.725,1.726,5.117,5.117,0,0,1-4.05,1.538,3.178,3.178,0,0,1-3.489-2.514c-.338.714-2.1,2.514-5.477,2.514m5.176-8.815a9.791,9.791,0,0,0-3.676.938,2.231,2.231,0,0,0-1.163,2.026,1.915,1.915,0,0,0,2.138,1.988c1.951,0,2.7-1.875,2.7-3.413Z" transform="translate(-4290.648 -3376.143)" fill="#d22526"/> </g> </g> </svg>