<svg id="Layer_1" data-name="Layer 1" xmlns="http://www.w3.org/2000/svg" viewBox="0 0 246.83 232.26"><defs><style>.cls-1{fill:#d22526;}.cls-2{fill:#fff;}</style></defs><title>CLOCK</title><polygon class="cls-1" points="181.53 65.33 167.03 65.33 167.03 50.76 79.85 50.76 79.85 65.33 65.39 65.33 65.39 79.78 50.83 79.78 50.83 166.96 65.39 166.96 65.39 181.48 79.85 181.48 79.85 195.98 167.03 195.98 167.03 181.48 181.53 181.48 181.53 166.96 196.05 166.96 196.05 79.78 181.53 79.78 181.53 65.33"/><polygon class="cls-1" points="239.57 14.53 225.05 14.53 225.05 14.53 210.53 14.53 210.53 7.27 196.01 7.27 196.01 14.53 181.56 14.53 181.56 29.05 188.75 29.05 188.75 36.31 196.01 36.31 196.01 43.57 203.27 43.57 203.27 50.83 210.53 50.83 210.53 58.09 217.79 58.09 217.79 65.34 232.31 65.34 232.31 50.78 239.57 50.78 239.57 14.53"/><polygon class="cls-1" points="58.08 29.05 72.59 29.05 72.59 14.53 50.82 14.53 50.82 7.27 36.3 7.27 36.3 14.53 21.78 14.53 21.78 14.53 7.26 14.53 7.26 58.08 14.52 58.08 14.52 65.34 29.04 65.34 29.04 58.09 36.3 58.09 36.3 50.83 43.56 50.83 43.56 43.57 50.82 43.57 50.82 36.31 58.08 36.31 58.08 29.05"/><polygon class="cls-2" points="65.3 94.41 65.32 152.48 79.84 152.48 79.84 167.04 94.36 167.04 94.36 181.56 152.51 181.56 152.51 167.04 167.03 167.04 167.03 152.48 181.54 152.48 181.51 94.41 166.99 94.41 166.99 79.85 152.47 79.85 152.47 65.33 94.38 65.37 94.38 79.89 79.82 79.89 79.82 94.41 65.3 94.41"/><polygon points="119.81 79.17 119.81 116.27 116.25 116.27 116.25 130.62 130.6 130.62 130.6 127 152.47 127 152.47 119.74 130.6 119.74 130.6 116.27 127.07 116.27 127.07 79.17 119.81 79.17"/><path d="M239.57,72.61v-.07h0V65.29h0V58h7.26V28.56h-7.26v-14h-7.25l0-7.27h-14V0H188.81V7.26H174.23v7.25h.07V29.05h0v7.26h7.28v7.26h7.25v7.24h7.25v7.3h7.21v3.51h0v3.76h7.24v7.16h29m-7.26-21.76V65.29H217.79V58.12h-7.24V50.85h-7.24v-7.3h-7.25V36.31h-7.25V29.05h-7.25V14.51h14.5V7.26h14.47v7.25h14.54v0h0v7.26h7.26V36.31h7.26V50.78Z"/><path d="M72.59,14.51V7.26H58V0H28.55V7.26h-14v7.27H7.26v14H0V58H7.26v7.26h0v7.25h0v.07h7.26v-.07H36.28V65.38h7.23v-.95h0V58.11h7.25v-7.3H58V43.57h7.26V36.31h7.28V29.05h0V14.51ZM65.27,29.05H58v7.26H50.77v7.24H43.51v7.26h.07v0h-7.3v7.26H29v7.17H14.52V50.78H7.26V36.31h7.26V21.79h7.26V14.53h0v0H36.3V7.26H50.76v7.25H65.27Z"/><path d="M174.25,87.07V72.51H159.73V58H87.14v3.82h0v10.7H76.89v0H72.56V87.07H65.32V87H58.06v72.71H72.58v14.56H87.1v14.52h72.59v-7.26h.08v-7.26h14.52V159.66h14.48V87.07Zm7.26,65.33H167V167H152.51v14.51H94.36V167H79.84V152.4H65.32V94.33h14.5V79.82H94.38V65.25h58.09V79.77H167V94.33h14.52Z"/><path d="M203.3,79.8V72.58H188.75V65.36h.05V58.14h-.05V58h-7.22v.11h-7.28V43.55H72.62v0h0V58.14H65.33V58H58.11v.11h0v7.22h0v7.22H43.56V174.26H58.11v7.22h0v7.22h0v.11h7.22v-.11h7.28v14.55h29.05V225H87.14v7.26h21.74v-3.63h0V203.25h29v25.38h0v3.63h21.74V225H145.21V203.25h29V188.7h7.28v.11h7.22v-.11h.05v-7.22h-.05v-7.22H203.3V167h0V79.8ZM196,167h-14.5v14.44H167V196H79.83V181.48H65.33V167H50.82V79.8H65.33V65.36h14.5V50.81H167V65.36h14.5V79.8H196Z"/></svg>