<svg xmlns="http://www.w3.org/2000/svg" width="182.998" height="24.301" viewBox="0 0 182.998 24.301"> <g transform="translate(-4061.386 -3352.692)"> <path d="M4077.586,3374.293h-2.7v2.7h-10.8v-5.4h8.1v-2.7h-8.1v-2.7h-2.7v-10.8h2.7v-2.7h10.8v2.7h2.7Zm-5.4-8.1v-8.1h-5.4v8.1Z"/> <path d="M4099.485,3368.893h-2.7v2.7h-10.8v-2.7h-2.7v-5.4h2.7v-2.7h8.1v-2.7h-8.1v-5.4h10.8v2.7h2.7Zm-5.4-2.7v-2.7h-5.4v2.7Z"/> <path d="M4126.786,3371.593h-5.4v-13.5h-2.7v13.5h-5.4v-13.5h-2.7v13.5h-5.4v-18.9h2.7v2.7h2.7v-2.7h5.4v2.7h2.7v-2.7h5.4v2.7h2.7Z"/> <path d="M4148.686,3371.593h-13.5v-2.7h-2.7v-13.5h2.7v-2.7h10.8v2.7h2.7v8.1h-10.8v2.7h10.8Zm-5.4-10.8v-2.7h-5.4v2.7Z"/> <path d="M4181.385,3368.893h-2.7v2.7h-10.8v-2.7h-2.7v-13.5h2.7v-2.7h10.8v2.7h2.7Zm-5.4-2.7v-8.1h-5.4v8.1Z"/> <path d="M4203.284,3366.192h-2.7v2.7h-2.7v2.7h-5.4v-2.7h-2.7v-2.7h-2.7v-13.5h5.4v13.5h5.4v-13.5h5.4Z"/> <path d="M4225.185,3371.593h-13.5v-2.7h-2.7v-13.5h2.7v-2.7h10.8v2.7h2.7v8.1h-10.8v2.7h10.8Zm-5.4-10.8v-2.7h-5.4v2.7Z"/> <path d="M4244.384,3358.093h-8.1v13.5h-5.4v-18.9h2.7v2.7h2.7v-2.7h8.1Z"/> </g> </svg>