<svg xmlns="http://www.w3.org/2000/svg" width="757.497" height="757.496" viewBox="0 0 757.497 757.496"> <g transform="translate(-142.517 -142.541)"> <g transform="translate(142.517 142.541)"> <path d="M570.486,553.08S486.7,575.4,427.747,516.448s-36.632-142.739-36.632-142.739,83.79-22.316,142.739,36.632S570.486,553.08,570.486,553.08" transform="translate(-386.971 -369.565)" fill="#d22526"/> <path d="M570.486,553.08S486.7,575.4,427.747,516.448s-36.632-142.739-36.632-142.739,83.79-22.316,142.739,36.632S570.486,553.08,570.486,553.08" transform="translate(-102.052 -369.565)" fill="#d22526"/> <path d="M570.486,553.08S486.7,575.4,427.747,516.448s-36.632-142.739-36.632-142.739,83.79-22.316,142.739,36.632S570.486,553.08,570.486,553.08" transform="translate(182.867 -369.565)" fill="#d22526"/> <path d="M570.486,553.08S486.7,575.4,427.747,516.448s-36.632-142.739-36.632-142.739,83.79-22.316,142.739,36.632S570.486,553.08,570.486,553.08" transform="translate(-386.971 -84.646)" fill="#d22526"/> <path d="M570.486,553.08S486.7,575.4,427.747,516.448s-36.632-142.739-36.632-142.739,83.79-22.316,142.739,36.632S570.486,553.08,570.486,553.08" transform="translate(182.867 -84.646)" fill="#d22526"/> <path d="M570.486,553.08S486.7,575.4,427.747,516.448s-36.632-142.739-36.632-142.739,83.79-22.316,142.739,36.632S570.486,553.08,570.486,553.08" transform="translate(-386.971 200.273)" fill="#d22526"/> <path d="M570.486,553.08S486.7,575.4,427.747,516.448s-36.632-142.739-36.632-142.739,83.79-22.316,142.739,36.632S570.486,553.08,570.486,553.08" transform="translate(-102.052 200.273)" fill="#d22526"/> <path d="M570.486,553.08S486.7,575.4,427.747,516.448s-36.632-142.739-36.632-142.739,83.79-22.316,142.739,36.632S570.486,553.08,570.486,553.08" transform="translate(182.867 200.273)" fill="#d22526"/> </g> <path d="M391.115,553.08s83.791,22.316,142.74-36.632,36.632-142.739,36.632-142.739-83.791-22.316-142.74,36.632S391.115,553.08,391.115,553.08" transform="translate(-102.052 -84.646)" fill="#d22526"/> <path d="M391.115,553.08s83.791,22.316,142.74-36.632,36.632-142.739,36.632-142.739-83.791-22.316-142.74,36.632S391.115,553.08,391.115,553.08" transform="translate(182.867 -84.646)" fill="#d22526"/> <path d="M391.115,553.08s83.791,22.316,142.74-36.632,36.632-142.739,36.632-142.739-83.791-22.316-142.74,36.632S391.115,553.08,391.115,553.08" transform="translate(-102.052 200.273)" fill="#d22526"/> <path d="M391.115,553.08s83.791,22.316,142.74-36.632,36.632-142.739,36.632-142.739-83.791-22.316-142.74,36.632S391.115,553.08,391.115,553.08" transform="translate(182.867 200.273)" fill="#d22526"/> <path d="M570.486,553.08S486.7,575.4,427.747,516.448s-36.632-142.739-36.632-142.739,83.79-22.316,142.739,36.632S570.486,553.08,570.486,553.08" transform="translate(40.465 57.894)" fill="#d22526"/> <g transform="translate(435.359 494.3)"> <path d="M554.918,852.044a3.937,3.937,0,0,0-4.06-4.221c-2.992,0-4.542,2.3-4.542,4.808h8.6ZM537.5,856.211c0-8.708,5.823-14.318,13.464-14.318,8.655,0,12.021,5.877,12.021,12.128a21.494,21.494,0,0,1-.267,3.152H546.477c.481,5.235,4.167,6.678,7.586,6.678a9.825,9.825,0,0,0,7.694-3.26,5.9,5.9,0,0,1,.374,1.977c0,2.725-2.511,7.373-10.792,7.373-9.937,0-13.837-7.159-13.837-13.731m-1.175,13.2H513.512v-5.343l13.411-15.334h-9.4c-2.992,0-4.06-1.977-4.06-4.22a7.473,7.473,0,0,1,.374-2.084h22.493v5.557L523.183,863.1h13.785Zm-50.542-26.981a17.569,17.569,0,0,1,2.4-.16c3.686,0,6.892,1.763,6.892,5.824v11.647c0,2.191.855,3.846,3.473,3.846,3.74,0,4.328-3.259,4.328-5.823V842.427h8.708v27.194c-2.724,0-6.838-.214-7.96-4.862-1.336,3.473-4.648,5.182-8.5,5.182-5.556,0-8.762-3.259-8.762-9.029,0-16.509-.588-18.486-.588-18.486m-7.64,0h5.236v5.931h-5.236v21.05h-8.709V848.731c-2.724,0-4.434-1.656-4.434-4.594v-1.71h4.434v-2.779c0-6.358,4.381-9.456,10.418-9.456a13.855,13.855,0,0,1,5.076.962,7.152,7.152,0,0,1,.053,1.068c0,2.4-.908,4.755-4.274,4.755-2.03,0-2.565,1.443-2.565,3.312Z" transform="translate(-465 -830.192)" fill="#fff"/> <path d="M810.821,864.817c-2.3.32-4.06.588-5.235,1.335a3.177,3.177,0,0,0-1.656,2.885,2.727,2.727,0,0,0,3.045,2.831c2.778,0,3.847-2.671,3.847-4.862Zm-7.373,12.555c-3.9,0-8.228-1.923-8.228-7.747,0-3.152,2.03-5.61,5.022-7,2.939-1.389,6.785-1.924,10.578-2.19v-1.817c0-1.977-1.6-2.564-3.686-2.564-1.389,0-3.1.374-4.435.374-4.434,0-5.129-3.259-5.449-5.022a28.336,28.336,0,0,1,10.793-2.084c7.159,0,11.486,2.885,11.486,9.4v14a2.353,2.353,0,0,0,2.457,2.457c-.908,1.123-2.831,2.191-5.77,2.191-3.366,0-4.595-1.923-4.969-3.58-.481,1.015-2.992,3.58-7.8,3.58m-16.83-17.9a3.938,3.938,0,0,0-4.061-4.221c-2.992,0-4.541,2.3-4.541,4.808h8.6ZM769.2,863.642c0-8.708,5.824-14.319,13.464-14.319,8.655,0,12.021,5.877,12.021,12.128a21.472,21.472,0,0,1-.267,3.152H778.177c.481,5.236,4.167,6.678,7.587,6.678a9.827,9.827,0,0,0,7.694-3.259,5.9,5.9,0,0,1,.374,1.977c0,2.725-2.512,7.373-10.792,7.373-9.937,0-13.838-7.159-13.838-13.731m-7.641-7.854V868.4c0,1.977,1.229,3.206,3.74,3.206a8.628,8.628,0,0,0,4.167-1.176c0,1.549-1.335,6.946-8.174,6.946-5.45,0-8.442-2.832-8.442-7.961V855.574l-4.167-.588v-5.129h4.167v-1.175c.053-4.114,2.778-7.106,8.708-7.106v8.281H768.4l-.534,5.93Zm61.579-4.957a1.086,1.086,0,0,0-.38-.052h-.16v.728h.255a.608.608,0,0,0,.359-.092.34.34,0,0,0,.129-.3.286.286,0,0,0-.2-.285m-1.2,2.014v-2.508h.7q.465,0,.517,0a1.211,1.211,0,0,1,.494.129.633.633,0,0,1,.335.6.55.55,0,0,1-.177.457.824.824,0,0,1-.434.168.846.846,0,0,1,.356.145.684.684,0,0,1,.221.563v.224a.455.455,0,0,0,.006.074.334.334,0,0,0,.018.074l.023.071h-.626a1.8,1.8,0,0,1-.042-.347,1.186,1.186,0,0,0-.041-.307.307.307,0,0,0-.185-.185.757.757,0,0,0-.224-.04l-.144-.009H822.6v.887Zm-.338-2.57a1.877,1.877,0,0,0,1.33,3.2,1.784,1.784,0,0,0,1.317-.553,1.833,1.833,0,0,0,.546-1.332,1.812,1.812,0,0,0-.543-1.311,1.836,1.836,0,0,0-2.65,0m2.914,2.935a2.258,2.258,0,0,1-3.847-1.624,2.159,2.159,0,0,1,.706-1.649,2.216,2.216,0,0,1,1.557-.614,2.269,2.269,0,0,1,1.585,3.887" transform="translate(-650.165 -837.623)" fill="#1d1d1b"/> </g> </g> </svg>