<svg xmlns="http://www.w3.org/2000/svg" width="149.991" height="137.127" viewBox="0 0 149.991 137.127"><rect width="24.998" height="45.829" transform="translate(33.334 45.56)" fill="#d22526"/><rect width="24.998" height="45.829" transform="translate(4.169 45.56)" fill="#fff"/><rect width="24.998" height="45.829" transform="translate(91.662 45.56)" fill="#d22526"/><rect width="24.998" height="45.829" transform="translate(62.498 45.56)" fill="#fff"/><rect width="24.998" height="45.829" transform="translate(120.826 45.56)" fill="#fff"/><rect width="4.166" height="45.915" transform="translate(0.003 45.517)"/><rect width="4.166" height="49.996" transform="translate(29.167 45.517)"/><rect width="4.166" height="49.996" transform="translate(58.332 45.517)"/><rect width="4.166" height="49.996" transform="translate(87.496 45.517)"/><rect width="4.166" height="141.655" transform="translate(145.824 41.351) rotate(90)"/><rect width="4.166" height="141.655" transform="translate(145.824 91.346) rotate(90)"/><rect width="4.166" height="49.996" transform="translate(116.66 45.517)"/><rect width="4.166" height="45.83" transform="translate(145.824 45.517)"/><rect width="12.499" height="4.166" transform="translate(12.502 53.849)"/><rect width="12.499" height="4.166" transform="translate(8.336 78.847)"/><rect width="16.665" height="4.166" transform="translate(37.5 78.847)"/><rect width="16.665" height="4.166" transform="translate(37.5 53.849)"/><rect width="16.665" height="4.166" transform="translate(12.502 53.85) rotate(90)"/><rect width="12.499" height="4.166" transform="translate(25.001 70.515) rotate(90)"/><rect width="24.716" height="4.166" transform="translate(41.666 56.552) rotate(90)"/><rect width="16.665" height="4.166" transform="translate(66.664 78.847)"/><rect width="16.665" height="4.166" transform="translate(66.664 53.849)"/><rect width="24.716" height="4.166" transform="translate(70.831 56.552) rotate(90)"/><rect width="16.665" height="4.166" transform="translate(124.993 78.847)"/><rect width="16.665" height="4.166" transform="translate(124.993 53.849)"/><rect width="24.716" height="4.166" transform="translate(129.159 56.552) rotate(90)"/><rect width="24.716" height="4.166" transform="translate(83.33 56.552) rotate(90)"/><rect width="16.665" height="4.166" transform="translate(95.828 66.348)"/><rect width="12.499" height="4.166" transform="translate(124.993 66.348)"/><rect width="16.665" height="4.166" transform="translate(95.828 53.849)"/><rect width="26.462" height="4.166" transform="translate(99.995 56.552) rotate(90)"/><rect width="13.963" height="4.166" transform="translate(112.494 56.552) rotate(90)"/><rect width="4.166" height="4.166" transform="translate(108.327 70.515) rotate(90)"/><rect width="8.333" height="4.166" transform="translate(112.494 74.681) rotate(90)"/><rect width="16.665" height="4.166" transform="translate(25.001 70.515) rotate(180)"/><g transform="translate(25.001 103.931)"><rect width="4.154" height="4.154" transform="translate(0 24.925)"/><rect width="4.154" height="4.154" transform="translate(4.172 20.77)" fill="#d22526"/><rect width="4.154" height="4.154" transform="translate(8.345 16.616)"/><rect width="4.154" height="4.154" transform="translate(12.517 12.462)" fill="#d22526"/><rect width="4.154" height="4.154" transform="translate(16.69 8.308)"/><rect width="4.154" height="4.154" transform="translate(20.862 4.154)" fill="#d22526"/><rect width="4.154" height="4.154" transform="translate(25.035 0)"/></g><g transform="translate(0 103.931)"><rect width="4.154" height="4.154" transform="translate(0 12.462)" fill="#d22526"/><rect width="4.154" height="4.154" transform="translate(4.172 8.308)"/><rect width="4.154" height="4.154" transform="translate(8.345 4.154)" fill="#d22526"/><rect width="4.154" height="4.154" transform="translate(12.517 0)"/></g><rect width="4.154" height="4.154" transform="translate(72.912 103.931)"/><rect width="4.154" height="4.154" transform="translate(72.912 108.048)" fill="#d22526"/><rect width="4.154" height="4.154" transform="translate(72.912 112.239)"/><rect width="4.154" height="4.154" transform="translate(72.912 116.357)" fill="#d22526"/><rect width="4.154" height="4.154" transform="translate(72.912 120.547)"/><rect width="4.154" height="4.154" transform="translate(72.912 124.665)" fill="#d22526"/><rect width="4.154" height="4.154" transform="translate(72.912 128.855)"/><rect width="4.154" height="4.154" transform="translate(72.912 132.973)" fill="#d22526"/><g transform="translate(95.696 103.931)"><rect width="4.154" height="4.154" transform="translate(29.189 29.079) rotate(-180)"/><rect width="4.154" height="4.154" transform="translate(25.016 24.925) rotate(-180)" fill="#d22526"/><rect width="4.154" height="4.154" transform="translate(20.844 20.771) rotate(-180)"/><rect width="4.154" height="4.154" transform="translate(16.671 16.616) rotate(-180)" fill="#d22526"/><rect width="4.154" height="4.154" transform="translate(12.499 12.462) rotate(-180)"/><rect width="4.154" height="4.154" transform="translate(8.327 8.308) rotate(-180)" fill="#d22526"/><rect width="4.154" height="4.154" transform="translate(4.154 4.154) rotate(-180)"/></g><g transform="translate(133.214 103.931)"><rect width="4.154" height="4.154" transform="translate(16.671 16.616) rotate(-180)" fill="#d22526"/><rect width="4.154" height="4.154" transform="translate(12.499 12.462) rotate(-180)"/><rect width="4.154" height="4.154" transform="translate(8.327 8.308) rotate(-180)" fill="#d22526"/><rect width="4.154" height="4.154" transform="translate(4.154 4.154) rotate(-180)"/></g><g transform="translate(25.001 4.118)"><rect width="4.154" height="4.154" transform="translate(0 0)"/><rect width="4.154" height="4.154" transform="translate(4.172 4.154)" fill="#d22526"/><rect width="4.154" height="4.154" transform="translate(8.345 8.308)"/><rect width="4.154" height="4.154" transform="translate(12.517 12.462)" fill="#d22526"/><rect width="4.154" height="4.154" transform="translate(16.69 16.616)"/><rect width="4.154" height="4.154" transform="translate(20.862 20.771)" fill="#d22526"/><rect width="4.154" height="4.154" transform="translate(25.035 24.925)"/></g><g transform="translate(0 16.58)"><rect width="4.154" height="4.154" fill="#d22526"/><rect width="4.154" height="4.154" transform="translate(4.172 4.154)"/><rect width="4.154" height="4.154" transform="translate(8.345 8.308)" fill="#d22526"/><rect width="4.154" height="4.154" transform="translate(12.517 12.462)"/></g><rect width="4.154" height="4.154" transform="translate(72.912 29.042)"/><rect width="4.154" height="4.154" transform="translate(72.912 24.925)" fill="#d22526"/><rect width="4.154" height="4.154" transform="translate(72.912 20.734)"/><rect width="4.154" height="4.154" transform="translate(72.912 16.616)" fill="#d22526"/><rect width="4.154" height="4.154" transform="translate(72.912 12.426)"/><rect width="4.154" height="4.154" transform="translate(72.912 8.308)" fill="#d22526"/><rect width="4.154" height="4.154" transform="translate(72.912 4.118)"/><rect width="4.154" height="4.154" transform="translate(72.912)" fill="#d22526"/><g transform="translate(95.696 4.118)"><rect width="4.154" height="4.154" transform="translate(29.189 4.154) rotate(180)"/><rect width="4.154" height="4.154" transform="translate(25.016 8.308) rotate(180)" fill="#d22526"/><rect width="4.154" height="4.154" transform="translate(20.844 12.462) rotate(180)"/><rect width="4.154" height="4.154" transform="translate(16.671 16.616) rotate(180)" fill="#d22526"/><rect width="4.154" height="4.154" transform="translate(12.499 20.771) rotate(180)"/><rect width="4.154" height="4.154" transform="translate(8.327 24.924) rotate(180)" fill="#d22526"/><rect width="4.154" height="4.154" transform="translate(4.154 29.079) rotate(180)"/></g><g transform="translate(133.214 16.58)"><rect width="4.154" height="4.154" transform="translate(16.671 4.154) rotate(180)" fill="#d22526"/><rect width="4.154" height="4.154" transform="translate(12.499 8.308) rotate(180)"/><rect width="4.154" height="4.154" transform="translate(8.327 12.462) rotate(180)" fill="#d22526"/><rect width="4.154" height="4.154" transform="translate(4.154 16.616) rotate(180)"/></g></svg>