<svg xmlns="http://www.w3.org/2000/svg" width="18.048" height="17.248" viewBox="0 0 18.048 17.248">
  <path id="Trazado_52" data-name="Trazado 52" d="M2087.484,1366.717l1.55,4.769a.847.847,0,0,0,.805.585h5.015a.847.847,0,0,1,.5,1.532l-4.057,2.948a.847.847,0,0,0-.308.947l1.55,4.769a.847.847,0,0,1-1.3.947l-4.057-2.948a.847.847,0,0,0-1,0l-4.057,2.948a.847.847,0,0,1-1.3-.947l1.55-4.769a.847.847,0,0,0-.308-.947l-4.057-2.948a.847.847,0,0,1,.5-1.532h5.015a.847.847,0,0,0,.805-.585l1.55-4.769A.847.847,0,0,1,2087.484,1366.717Z" transform="translate(-2077.655 -1366.131)" fill="#d22526"/>
</svg>
